<?xml version="1.0" encoding="utf-8"?>
<!-- Generator: Adobe Illustrator 25.3.1, SVG Export Plug-In . SVG Version: 6.00 Build 0)  -->
<svg version="1.1" id="Слой_1" xmlns="http://www.w3.org/2000/svg" xmlns:xlink="http://www.w3.org/1999/xlink" x="0px" y="0px"
	 viewBox="0 0 150.52 51.44" style="enable-background:new 0 0 150.52 51.44;" xml:space="preserve">
<style type="text/css">
	.st0{fill-rule:evenodd;clip-rule:evenodd;fill:#6D6E71;}
	.st1{fill-rule:evenodd;clip-rule:evenodd;fill:#706F6F;}
	.st2{fill-rule:evenodd;clip-rule:evenodd;fill:#52AE32;}
	.st3{fill-rule:evenodd;clip-rule:evenodd;fill:url(#SVGID_1_);}
	.st4{fill-rule:evenodd;clip-rule:evenodd;fill:url(#SVGID_2_);}
</style>
<g>
	<g>
		<path class="st0" d="M146.44,17.55v-0.67c0.1,0.03,0.2,0.03,0.31,0.03c0.52,0,0.75-0.35,1.08-1.03l-2.04-4.12h0.87l1.57,3.3h0.02
			l1.43-3.3h0.85l-2.01,4.41c-0.46,1.03-0.98,1.42-1.69,1.42C146.72,17.58,146.56,17.57,146.44,17.55L146.44,17.55z M143.01,12.42
			h-1.66v-0.67h4.27l-0.24,0.67h-1.59v5.1h-0.78V12.42L143.01,12.42z M140.16,15.37l-0.54-1.5c-0.17-0.49-0.25-0.75-0.32-0.96h-0.02
			c-0.06,0.21-0.16,0.48-0.33,0.97l-0.54,1.5H140.16L140.16,15.37z M138.99,11.74l-2.2,5.78h0.82l0.55-1.51h2.24l0.56,1.51h0.84
			l-2.24-5.78H138.99L138.99,11.74z M130.57,11.76h0.72l1.57,2.35c0.24,0.35,0.39,0.57,0.52,0.8h0.02c0.13-0.23,0.29-0.49,0.51-0.84
			l1.47-2.31h0.72v5.76h-0.77v-3.56c0-0.27,0-0.62,0.01-0.91h-0.01c-0.11,0.22-0.31,0.52-0.41,0.68l-1.33,2.12h-0.39l-1.46-2.16
			c-0.12-0.17-0.28-0.4-0.39-0.62h-0.02c0.02,0.25,0.02,0.63,0.02,0.88v3.58h-0.78V11.76L130.57,11.76z M124.42,11.76h0.77v3.48
			c0,0.4,0,0.69-0.02,1h0.02c0.19-0.28,0.44-0.64,0.78-1.08l2.56-3.4h0.75v5.76h-0.78v-3.61c0-0.42,0.01-0.69,0.02-0.96h-0.02
			c-0.19,0.28-0.44,0.62-0.75,1.04l-2.67,3.53h-0.66V11.76L124.42,11.76z M118.5,17.55v-0.73c0.08,0.02,0.14,0.02,0.18,0.02
			c0.25,0,0.5-0.12,0.68-0.43c0.53-0.91,0.9-3.25,1.01-4.65h2.75v5.76h-0.78v-5.13h-1.3c-0.1,1.31-0.5,3.54-1.08,4.49
			c-0.3,0.49-0.7,0.69-1.21,0.69C118.7,17.57,118.58,17.56,118.5,17.55L118.5,17.55z M114.21,11.76h0.77v2.55h0.57
			c0.89,0,0.97-1.18,1.35-1.99c0.18-0.38,0.46-0.61,0.92-0.61c0.13,0,0.31,0.02,0.43,0.07v0.7c-0.11-0.04-0.21-0.05-0.3-0.05
			c-0.21,0-0.33,0.1-0.43,0.27c-0.28,0.52-0.41,1.53-1.02,1.89v0.02c0.28,0.1,0.49,0.38,0.73,0.85l1.11,2.07h-0.89l-0.96-1.88
			c-0.26-0.51-0.48-0.69-0.66-0.69h-0.86v2.57h-0.77V11.76L114.21,11.76z M110.8,14.66c0-1.32-0.73-2.29-2.01-2.29
			c-1.22,0-2.02,0.91-2.02,2.29c0,1.39,0.8,2.28,2.02,2.28C109.99,16.94,110.8,16.05,110.8,14.66L110.8,14.66z M105.94,14.66
			c0-1.75,1.2-2.96,2.84-2.96c1.66,0,2.83,1.23,2.83,2.96c0,1.79-1.22,2.95-2.83,2.95C107.15,17.61,105.94,16.44,105.94,14.66
			L105.94,14.66z M100.58,11.76h4.34v5.76h-0.78v-5.1h-2.79v5.1h-0.77V11.76L100.58,11.76z M131.58,0h0.66
			c0,0.39,0.2,0.71,0.74,0.71c0.53,0,0.73-0.32,0.73-0.71h0.66c0.02,0.75-0.5,1.29-1.4,1.29C132.05,1.29,131.56,0.75,131.58,0
			L131.58,0z M130.54,1.62h0.77V5.1c0,0.4,0,0.69-0.02,1h0.02c0.19-0.28,0.44-0.64,0.78-1.08l2.56-3.4h0.75v5.76h-0.78V3.77
			c0-0.42,0.01-0.69,0.02-0.96h-0.02c-0.19,0.28-0.44,0.62-0.75,1.04l-2.67,3.53h-0.66V1.62L130.54,1.62z M128.47,1.62h0.78v5.76
			h-0.78V1.62L128.47,1.62z M125.58,6.73c0.95,0,1.4-0.36,1.4-1.09c0-0.45-0.17-0.75-0.49-0.92c-0.24-0.13-0.57-0.18-1.01-0.18
			h-0.39v2.19H125.58L125.58,6.73z M124.31,1.62h0.77v2.27h0.37c0.63,0,1.11,0.09,1.48,0.27c0.56,0.28,0.85,0.77,0.85,1.45
			c0,1.04-0.62,1.77-2.22,1.77h-1.24V1.62L124.31,1.62z M118.43,1.62h0.78V4.1h3.03V1.62h0.77v5.76h-0.77V4.77h-3.03v2.61h-0.78
			V1.62L118.43,1.62z M115.42,6.73c0.75,0,1.22-0.29,1.22-1c0-0.6-0.45-0.97-1.14-0.97h-0.88v1.97H115.42L115.42,6.73z M115.21,4.12
			c0.71,0,1.08-0.36,1.08-0.94c0-0.53-0.31-0.92-1.07-0.92h-0.6v1.85H115.21L115.21,4.12z M113.84,1.62h1.45
			c1.23,0,1.78,0.68,1.78,1.46c0,0.56-0.28,1.02-0.74,1.23v0.02c0.65,0.15,1.11,0.69,1.11,1.4c0,0.95-0.68,1.65-1.98,1.65h-1.62
			V1.62L113.84,1.62z M111.51,5.23l-0.54-1.51c-0.17-0.49-0.25-0.75-0.32-0.96h-0.02c-0.06,0.21-0.16,0.48-0.33,0.97l-0.54,1.5
			H111.51L111.51,5.23z M110.33,1.6h0.58l2.24,5.78h-0.84l-0.56-1.51h-2.24l-0.55,1.51h-0.82L110.33,1.6L110.33,1.6z M102.84,7.41
			V6.68c0.08,0.02,0.14,0.02,0.18,0.02c0.25,0,0.5-0.12,0.68-0.43c0.53-0.91,0.9-3.25,1.02-4.65h2.75v5.76h-0.78V2.26h-1.3
			c-0.11,1.31-0.5,3.54-1.08,4.49c-0.3,0.49-0.7,0.69-1.21,0.69C103.04,7.44,102.92,7.43,102.84,7.41L102.84,7.41z M100.58,1.62
			v5.76h0.77v-5.1h1.99l0.24-0.67H100.58z"/>
		<path class="st1" d="M84.77,29.38c5.08,3.74,8.85,9.95,9.85,19.01v3.05h-5.57c-1.1,0-2.19-0.42-3.03-1.26
			c-0.84-0.83-1.25-1.93-1.25-3.03V29.38L84.77,29.38z M15.59,18.34c1.93,0,4.32,0.7,4.32,4.11c0,2.96-2.39,3.31-4.32,3.31H8.87
			v-7.42H15.59L15.59,18.34z M18.43,33.24c1.37,0,4.66,0.91,4.66,5.23c0,4.32-3.3,4.66-4.66,4.66h-6.37c-2.05,0-3.3-1.25-3.3-3.18
			v-6.71H18.43L18.43,33.24z M119.01,23.67v19.46h-4.44c-4.9,0-4.9-2.39-4.9-4.1V23.67h-8.99v15.36c0,9.79,7.28,12.4,12.97,12.4
			h14.45V23.67H119.01L119.01,23.67z M56.19,43.14h-5.23c-4.89,0-5.58-3.19-5.58-4.89v-2.96c0-2.62,2.51-4.55,5.12-4.55
			c3.19,0,5.69,1.93,5.69,4.55V43.14L56.19,43.14z M50.96,22.31c-8.88,0-14.57,6.03-14.57,13.66v2.85c0,9.79,7.97,12.63,13.66,12.63
			h14.91V35.28C64.95,27.66,58.47,22.31,50.96,22.31L50.96,22.31z M26.73,28.81c1.93-2.28,2.27-4.89,2.27-6.94v-1.02
			c0-7.39-6.14-9.55-13.42-9.55H0v30.48c0,5.35,4.44,9.67,9.9,9.67h8.99c12.17,0,13.31-8.87,13.31-12.29v-1.82
			C32.19,33.92,31.17,30.63,26.73,28.81L26.73,28.81z M71.11,24.97c3.15,0.04,6.27,0.65,9.15,1.86v24.61h-4.61
			c-1.16,0-2.32-0.45-3.21-1.33c-0.89-0.89-1.33-2.05-1.33-3.21V24.97z"/>
		<path class="st2" d="M64.6,18.01c4.8-0.7,6.5,1.06,6.51,5.16v1.79c3.15,0.04,6.27,0.65,9.15,1.86V7.35L64.6,14.81V18.01
			L64.6,18.01z M84.77,5.16v24.22c5.08,3.74,8.85,9.95,9.86,19.01V0.34L84.77,5.16z"/>
		<linearGradient id="SVGID_1_" gradientUnits="userSpaceOnUse" x1="85.2643" y1="56.7725" x2="94.9773" y2="-12.3391">
			<stop  offset="0.1" style="stop-color:#F2F7ED"/>
			<stop  offset="0.8" style="stop-color:#52AE32"/>
		</linearGradient>
		<path class="st3" d="M94.62,0.34l-9.85,4.81v17.13c9.44,7.94,9.86,23.07,9.86,23.07L94.62,0.34z"/>
		<linearGradient id="SVGID_2_" gradientUnits="userSpaceOnUse" x1="70.735" y1="29.1788" x2="75.3478" y2="-3.6434">
			<stop  offset="0.1" style="stop-color:#F2F7ED"/>
			<stop  offset="0.8" style="stop-color:#52AE32"/>
		</linearGradient>
		<path class="st4" d="M64.6,14.81v3.2c0.49-0.07,0.96-0.12,1.39-0.14l0,0c5.89-0.86,10.57-0.13,14.28,1.56V7.35L64.6,14.81z"/>
	</g>
</g>
</svg>
