<svg width="46" height="46" viewBox="0 0 46 46" fill="none" xmlns="http://www.w3.org/2000/svg">
<rect width="46" height="46" rx="6" fill="white"/>
<path d="M4 42H42V4H4V42ZM28.3563 6.90209C35.0729 9.10335 39.9267 15.4708 39.9449 22.9928C39.9631 30.3924 35.2074 36.7446 28.3563 39.0918V6.90209ZM22.9939 6.04089C24.2074 6.04089 25.4999 6.20279 26.5765 6.41714C26.5765 15.0261 18.2496 22.1111 9.6559 22.1111L6.06271 22.1057C6.65194 13.2809 13.9547 6.04089 22.9939 6.04089ZM9.65894 23.9034C18.2511 23.9034 26.575 30.9807 26.575 39.5813C25.4999 39.801 24.1427 39.9644 22.9939 39.9644C13.9516 39.9523 6.4018 32.6902 6.06043 23.9034H9.65894Z" fill="#041E41"/>
</svg>
