<svg id="mocl5x9hed97ajmj" viewBox="0 0 210 26" xmlns="http://www.w3.org/2000/svg"
     xmlns:xlink="http://www.w3.org/1999/xlink">
    <g id="mocl5x9hed97ajmj_translate">
        <g transform="matrix(1,0,0,1,0,0)">
            <g id="mocl5x9hed97ajmj" opacity="1" style="mix-blend-mode:normal">
                <g>
                    <defs>
                        <clipPath id="mocl5x9hed97ajmj_clipPath" x="-50%" y="-50%" width="200%" height="200%">
                            <path id="mocl5x9hed97ajmj_fill_path"
                                  d="M0.01,0h209.98c0.00552,0 0.01,0.00448 0.01,0.01v25.98c0,0.00552 -0.00448,0.01 -0.01,0.01h-209.98c-0.00552,0 -0.01,-0.00448 -0.01,-0.01v-25.98c0,-0.00552 0.00448,-0.01 0.01,-0.01z"
                                  fill="white" clip-rule="nonzero"></path>
                        </clipPath>
                    </defs>
                    <g clip-path="url(#mocl5x9hed97ajmj_clipPath)">
                        <g id="mocl5x9loy94wmbr_translate">
                            <g transform="matrix(1,0,0,1,48.39,1.17)">
                                <g id="mocl5x9loy94wmbr" opacity="1" style="mix-blend-mode:normal">
                                    <g>
                                        <g>
                                            <g id="mocl5x9mvsfu8ndv_translate">
                                                <g transform="matrix(1,0,0,1,13.2103,0)">
                                                    <g id="mocl5x9mvsfu8ndv" opacity="1" style="mix-blend-mode:normal">
                                                        <g>
                                                            <g>
                                                                <path id="mocl5x9mvsfu8ndv_fill_path"
                                                                      d="M15.19011,23.24146c-1.00618,0.25366 -2.04482,0.38049 -3.11592,0.38049c-4.08964,0 -7.69243,-1.99756 -9.89954,-5.04146c-1.39567,-1.90244 -2.17465,-4.24878 -2.17465,-6.78537c0,-0.72927 0.06491,-1.45854 0.19474,-2.1561c1.03864,-5.48537 5.97218,-9.63902 11.87944,-9.63902c6.65379,0 12.07422,5.29512 12.07422,11.79512c0,2.44146 -0.77898,4.72439 -2.07728,6.59512h-3.3107c1.75274,-1.68049 2.82384,-4.02683 2.82384,-6.59512c0,-5.13659 -4.28442,-9.29024 -9.51008,-9.29024c-5.25811,0 -9.51005,4.18537 -9.51005,9.29024c0,5.13659 4.28439,9.29024 9.51005,9.29024c1.62287,0 3.14838,-0.41219 4.47914,-1.10975l-0.06492,0.15854z"
                                                                      fill-rule="nonzero" fill="rgb(250, 77, 86)"
                                                                      fill-opacity="1"
                                                                      style="mix-blend-mode:normal"></path>
                                                            </g>
                                                        </g>
                                                    </g>
                                                </g>
                                            </g>
                                            <g id="mocl5x9wek419ete_translate">
                                                <g transform="matrix(1,0,0,1,0,0.1582)">
                                                    <g id="mocl5x9wek419ete" opacity="1" style="mix-blend-mode:normal">
                                                        <g>
                                                            <g>
                                                                <path id="mocl5x9wek419ete_fill_path"
                                                                      d="M16.00155,15.37805c0,1.07805 -0.2272,2.12439 -0.61669,3.0439c-1.23338,2.94878 -4.21947,5.04146 -7.65997,5.04146c-3.53787,0 -6.55642,-2.1561 -7.72489,-5.2h2.85627c1.00618,1.61707 2.8238,2.66341 4.86862,2.66341c3.14838,0 5.71252,-2.50488 5.71252,-5.58049c0,-3.07561 -2.56414,-5.58049 -5.71252,-5.58049h-2.40185l4.86862,-7.22927h-8.95827v-2.53659h13.72953l-5.03091,7.57805c1.33076,0.34878 2.49923,1.01463 3.47295,1.93415c1.59042,1.45854 2.5966,3.55122 2.5966,5.86585z"
                                                                      fill-rule="nonzero" fill="rgb(250, 77, 86)"
                                                                      fill-opacity="1"
                                                                      style="mix-blend-mode:normal"></path>
                                                            </g>
                                                        </g>
                                                    </g>
                                                </g>
                                            </g>
                                            <g id="mocl5xa09lcr2hjb_translate">
                                                <g transform="matrix(1,0,0,1,29.7311,19.6582)">
                                                    <g id="mocl5xa09lcr2hjb" opacity="1" style="mix-blend-mode:normal">
                                                        <g>
                                                            <g>
                                                                <path id="mocl5xa09lcr2hjb_fill_path"
                                                                      d="M1.49305,0.34878c0.06491,-0.15854 0.16229,-0.34878 0.55178,-0.34878c0.38955,0 0.48693,0.15854 0.55184,0.34878l1.42813,3.29756h-0.74652l-1.16854,-2.85366c0,-0.03171 -0.03246,-0.09512 -0.09737,-0.09512c-0.06491,0 -0.06492,0.06342 -0.09737,0.09512l-1.16847,2.85366h-0.74652z"
                                                                      fill-rule="nonzero" fill="rgb(15, 98, 254)"
                                                                      fill-opacity="1"
                                                                      style="mix-blend-mode:normal"></path>
                                                            </g>
                                                        </g>
                                                    </g>
                                                </g>
                                            </g>
                                            <g id="mocl5xa3ug5k4bef_translate">
                                                <g transform="matrix(1,0,0,1,34.048,19.7217)">
                                                    <g id="mocl5xa3ug5k4bef" opacity="1" style="mix-blend-mode:normal">
                                                        <g>
                                                            <g>
                                                                <path id="mocl5xa3ug5k4bef_fill_path"
                                                                      d="M0.55178,3.58293c-0.16229,0 -0.29212,0 -0.42195,-0.12683c-0.12983,-0.12683 -0.12983,-0.28537 -0.12983,-0.4122v-2.53659c0,-0.15854 0.03246,-0.28536 0.12983,-0.38049c0.12983,-0.12683 0.29212,-0.12683 0.45441,-0.12683h2.3694v0.53903h-1.97991c-0.06491,0 -0.12983,0 -0.19474,0.06341c-0.06491,0.06341 -0.06491,0.12683 -0.06491,0.15854v0.72927h2.17465v0.53902h-2.17465v0.82439c0,0.06341 0.03246,0.12683 0.06491,0.12683c0.03246,0.03171 0.12983,0.03171 0.2272,0.03171h1.94745v0.53903h-2.40185z"
                                                                      fill-rule="nonzero" fill="rgb(15, 98, 254)"
                                                                      fill-opacity="1"
                                                                      style="mix-blend-mode:normal"></path>
                                                            </g>
                                                        </g>
                                                    </g>
                                                </g>
                                            </g>
                                            <g id="mocl5xa74ws1cca5_translate">
                                                <g transform="matrix(1,0,0,1,37.4885,19.7217)">
                                                    <g id="mocl5xa74ws1cca5" opacity="1" style="mix-blend-mode:normal">
                                                        <g>
                                                            <g>
                                                                <path id="mocl5xa74ws1cca5_fill_path"
                                                                      d="M1.42813,3.58293v-3.07561h-1.42813v-0.50732h3.57032v0.50732h-1.46059v3.07561z"
                                                                      fill-rule="nonzero" fill="rgb(15, 98, 254)"
                                                                      fill-opacity="1"
                                                                      style="mix-blend-mode:normal"></path>
                                                            </g>
                                                        </g>
                                                    </g>
                                                </g>
                                            </g>
                                        </g>
                                    </g>
                                </g>
                            </g>
                        </g>
                        <g id="mocl5xac9vlq2aey_translate">
                            <g transform="matrix(1,0,0,1,26,0)">
                                <g id="mocl5xac9vlq2aey" opacity="1" style="mix-blend-mode:normal">
                                    <g>
                                        <g>
                                            <path id="mocl5xac9vlq2aey_fill_path"
                                                  d="M0.01,0h157.98c0.00552,0 0.01,0.00448 0.01,0.01v25.98c0,0.00552 -0.00448,0.01 -0.01,0.01h-157.98c-0.00552,0 -0.01,-0.00448 -0.01,-0.01v-25.98c0,-0.00552 0.00448,-0.01 0.01,-0.01z"
                                                  fill-rule="nonzero" fill="rgb(255, 255, 255)" fill-opacity="1"
                                                  style="mix-blend-mode:normal"></path>
                                            <g id="mocl5xadd2r0z2em_translate">
                                                <g transform="matrix(1,0,0,1,-0.1062,1.395)">
                                                    <g id="mocl5xadd2r0z2em" opacity="1" style="mix-blend-mode:normal">
                                                        <g>
                                                            <g>
                                                                <path id="mocl5xadd2r0z2em_fill_path"
                                                                      d="M9.80217,12.36586c-0.09737,-0.06341 -0.19475,-0.15854 -0.29212,-0.25366c-0.64915,-0.60244 -2.23957,-1.93415 -4.1221,-1.93415c-0.29212,0 -0.87635,0.06341 -1.49305,0.22195c-0.68161,0.19024 -1.62287,0.63415 -1.62287,0.63415c0,0 0.94127,-1.07805 1.42813,-1.42683c0.64915,-0.47561 1.62287,-1.17317 3.31066,-1.23659c-0.16229,-0.63415 -0.29212,-1.26829 -0.29212,-1.93415c0,-2.75854 1.59041,-5.16829 3.92735,-6.37317c-0.09737,-0.03171 -0.19474,-0.06342 -0.29212,-0.06342h-7.65997c-1.49304,0 -2.69397,1.17317 -2.69397,2.63171v18.16829c0,0.34878 0.29212,0.66586 0.68161,0.66586h9.67234c0.35703,0 0.6816,-0.28537 0.6816,-0.66586v-7.54634c-0.38949,-0.25366 -0.81143,-0.53903 -1.23338,-0.88781z"
                                                                      fill-rule="evenodd" fill="rgb(15, 98, 254)"
                                                                      fill-opacity="1"
                                                                      style="mix-blend-mode:normal"></path>
                                                            </g>
                                                        </g>
                                                    </g>
                                                </g>
                                            </g>
                                            <g id="mocl5xag8kfyoosq_translate">
                                                <g transform="matrix(1,0,0,1,7.4563,1.395)">
                                                    <g id="mocl5xag8kfyoosq" opacity="1" style="mix-blend-mode:normal">
                                                        <g>
                                                            <g>
                                                                <path id="mocl5xag8kfyoosq_fill_path"
                                                                      d="M6.58887,0c-3.63524,0 -6.58887,2.88537 -6.58887,6.43659c0,0.63415 0.09738,1.26829 0.29212,1.87073c1.13601,0.12683 2.53168,0.76098 3.99227,1.77561c1.42813,1.01463 2.5966,1.52195 3.57032,1.61707c0.55178,0.03171 1.13602,0 1.42813,-0.03171c0.19474,-0.03171 0.42195,-0.06342 0.61669,-0.12683c0.19474,-0.06341 0.38949,-0.12683 0.51932,-0.19024c0.19474,-0.09512 0.35703,-0.19024 0.51932,-0.28537c0.06491,-0.06341 0.19474,-0.12683 0.32457,-0.22195c0.06491,-0.03171 0.29212,-0.25366 0.35703,-0.34878c0.06491,-0.09512 0.25966,-0.31707 0.35703,-0.41219c0.77898,-1.07805 1.16847,-2.28293 1.16847,-3.64634c0.03246,-3.55122 -2.92117,-6.43659 -6.55641,-6.43659z"
                                                                      fill-rule="nonzero" fill="rgb(250, 77, 86)"
                                                                      fill-opacity="1"
                                                                      style="mix-blend-mode:normal"></path>
                                                            </g>
                                                        </g>
                                                    </g>
                                                </g>
                                            </g>
                                            <g id="mocl5xai4grngz19_translate">
                                                <g transform="matrix(1,0,0,1,4.243,10.4951)">
                                                    <g id="mocl5xai4grngz19" opacity="1" style="mix-blend-mode:normal">
                                                        <g>
                                                            <g>
                                                                <path id="mocl5xai4grngz19_fill_path"
                                                                      d="M10.77589,3.32927h-0.06491c-1.26584,-0.09512 -2.17465,-0.50732 -3.6677,-1.68049c-1.97991,-1.42683 -3.34312,-1.64878 -3.95981,-1.64878h-0.03246c-1.23338,0 -2.30448,0.41219 -3.051,0.76097c0.48686,-0.12683 1.00618,-0.19024 1.46059,-0.19024c2.17465,0 3.57032,1.26829 4.25193,1.90244c0.09737,0.09512 0.19475,0.19024 0.25966,0.22195c1.59042,1.3 2.98609,1.49024 4.25193,1.49024c0.90881,0 1.94745,-0.31707 2.8238,-0.8561c0.25966,-0.15854 0.55178,-0.38049 0.77898,-0.57073c-0.48686,0.25366 -1.0711,0.4439 -1.68779,0.50732c-0.81144,0.09512 -1.10355,0.06341 -1.36321,0.06341z"
                                                                      fill-rule="nonzero" fill="rgb(15, 98, 254)"
                                                                      fill-opacity="1"
                                                                      style="mix-blend-mode:normal"></path>
                                                            </g>
                                                        </g>
                                                    </g>
                                                </g>
                                            </g>
                                            <g id="mocl5xalou4ubmqf_translate">
                                                <g transform="matrix(1,0,0,1,-0.3334,1.3003)">
                                                    <g id="mocl5xalou4ubmqf" opacity="1" style="mix-blend-mode:normal">
                                                        <g>
                                                            <g>
                                                                <path id="mocl5xalou4ubmqf_fill_path"
                                                                      d="M22.52551,0c-0.19474,0 -0.35703,0.15854 -0.35703,0.31707v20.13415c0,0.57073 -0.2272,1.10976 -0.64915,1.49024c-0.42195,0.4122 -0.97373,0.63415 -1.55796,0.63415h-19.63679c-0.19474,0 -0.32457,0.15854 -0.32457,0.31707v0.03171c0,0.19024 0.12983,0.31707 0.32457,0.31707h19.63679c0.74652,0 1.49304,-0.28537 2.01236,-0.82439c0.55178,-0.53902 0.8439,-1.23658 0.8439,-1.96585v-20.13415c0.03246,-0.15854 -0.09737,-0.31707 -0.29212,-0.31707z"
                                                                      fill-rule="nonzero" fill="rgb(15, 98, 254)"
                                                                      fill-opacity="1"
                                                                      style="mix-blend-mode:normal"></path>
                                                            </g>
                                                        </g>
                                                    </g>
                                                </g>
                                            </g>
                                            <g id="mocl5xanxl5mbiew_translate">
                                                <g transform="matrix(1,0,0,1,29.2028,6.0879)">
                                                    <g id="mocl5xanxl5mbiew" opacity="1" style="mix-blend-mode:normal">
                                                        <g>
                                                            <g>
                                                                <path id="mocl5xanxl5mbiew_fill_path"
                                                                      d="M0,2.06098c0,-0.50732 0,-1.04634 0.48686,-1.52195c0.4544,-0.4439 1.10356,-0.53902 1.59042,-0.53902h6.68625c0.74652,0 1.91498,0 2.79134,0.82439c0.97372,0.8878 1.0711,2.44146 1.0711,3.61463c0,1.10976 -0.12984,2.88537 -1.23339,3.77317c-0.51932,0.4122 -1.33075,0.66585 -2.14219,0.66585h-6.58888v4.85122h-2.66151zM7.65997,6.78537c0.58423,0 1.26585,0 1.72025,-0.50732c0.42195,-0.47561 0.4544,-1.36341 0.4544,-1.87073c0,-0.60244 -0.06492,-1.42683 -0.48686,-1.87073c-0.4544,-0.4439 -1.20093,-0.47561 -1.65533,-0.47561h-4.28438c-0.19474,0 -0.42195,-0.03171 -0.6167,0.19024c-0.19474,0.19024 -0.19475,0.4122 -0.19475,0.63415v3.93171h5.06337z"
                                                                      fill-rule="evenodd" fill="rgb(15, 98, 254)"
                                                                      fill-opacity="1"
                                                                      style="mix-blend-mode:normal"></path>
                                                            </g>
                                                        </g>
                                                    </g>
                                                </g>
                                            </g>
                                            <g id="mocl5xaqgdnlljul_translate">
                                                <g transform="matrix(1,0,0,1,41.796,6.0879)">
                                                    <g id="mocl5xaqgdnlljul" opacity="1" style="mix-blend-mode:normal">
                                                        <g>
                                                            <g>
                                                                <path id="mocl5xaqgdnlljul_fill_path"
                                                                      d="M4.28439,13.69756l1.68778,-3.0439l-5.97218,-10.65366h2.92117l4.41422,8.30732l4.28439,-8.30732h2.88871l-7.36785,13.69756z"
                                                                      fill-rule="evenodd" fill="rgb(15, 98, 254)"
                                                                      fill-opacity="1"
                                                                      style="mix-blend-mode:normal"></path>
                                                            </g>
                                                        </g>
                                                    </g>
                                                </g>
                                            </g>
                                            <g id="mocl5xas866b3umx_translate">
                                                <g transform="matrix(1,0,0,1,56.272,6.0879)">
                                                    <g id="mocl5xas866b3umx" opacity="1" style="mix-blend-mode:normal">
                                                        <g>
                                                            <g>
                                                                <path id="mocl5xas866b3umx_fill_path"
                                                                      d="M5.90727,13.69756c-1.33076,0 -3.18084,-0.19024 -4.47914,-1.61707c-1.33076,-1.45854 -1.42813,-3.55122 -1.42813,-5.04146c0,-1.96585 0.19475,-3.96341 1.36322,-5.32683c1.39567,-1.61707 3.60277,-1.7122 4.5765,-1.7122h5.64761v2.06098h-4.38176c-1.55796,0 -2.88872,0.09512 -3.70016,1.26829c-0.42195,0.60244 -0.77898,1.64878 -0.77898,3.67805c0,2.06098 0.38949,2.88537 0.64915,3.32927c0.71406,1.07805 2.01237,1.3 3.6677,1.3h4.73879v2.06098z"
                                                                      fill-rule="evenodd" fill="rgb(15, 98, 254)"
                                                                      fill-opacity="1"
                                                                      style="mix-blend-mode:normal"></path>
                                                            </g>
                                                        </g>
                                                    </g>
                                                </g>
                                            </g>
                                            <g id="mocl5xauf6bmnwwy_translate">
                                                <g transform="matrix(1,0,0,1,69.9045,6.0562)">
                                                    <g id="mocl5xauf6bmnwwy" opacity="1" style="mix-blend-mode:normal">
                                                        <g>
                                                            <g>
                                                                <path id="mocl5xauf6bmnwwy_fill_path"
                                                                      d="M0,0.03171h2.62906v13.69756h-2.62906zM10.09428,13.72927l-5.77744,-5.26342c-0.81144,-0.72927 -0.97372,-1.39512 -0.97372,-1.77561c0,-0.28537 0.06492,-0.88781 0.74653,-1.55366l5.32303,-5.13658h3.27821l-6.06956,5.61219c-0.4544,0.4439 -0.74652,0.76098 -0.74652,1.04634c0,0.4439 0.48686,0.8878 0.90881,1.26829l6.62133,5.77073h-3.31066z"
                                                                      fill-rule="evenodd" fill="rgb(15, 98, 254)"
                                                                      fill-opacity="1"
                                                                      style="mix-blend-mode:normal"></path>
                                                            </g>
                                                        </g>
                                                    </g>
                                                </g>
                                            </g>
                                            <g id="mocl5xaw84m3nyl5_translate">
                                                <g transform="matrix(1,0,0,1,82.3357,5.8979)">
                                                    <g id="mocl5xaw84m3nyl5" opacity="1" style="mix-blend-mode:normal">
                                                        <g>
                                                            <g>
                                                                <path id="mocl5xaw84m3nyl5_fill_path"
                                                                      d="M5.42041,1.3c0.29212,-0.63415 0.64915,-1.3 2.1422,-1.3c1.49304,0 1.85007,0.66585 2.14219,1.3l5.42041,12.5561h-2.79135l-4.44667,-10.93902c-0.06491,-0.19024 -0.12983,-0.38049 -0.32457,-0.38049c-0.2272,0 -0.29212,0.22195 -0.35703,0.38049l-4.44668,10.93902h-2.75889z"
                                                                      fill-rule="evenodd" fill="rgb(15, 98, 254)"
                                                                      fill-opacity="1"
                                                                      style="mix-blend-mode:normal"></path>
                                                            </g>
                                                        </g>
                                                    </g>
                                                </g>
                                            </g>
                                            <g id="mocl5xayll77ub74_translate">
                                                <g transform="matrix(1,0,0,1,98.0127,5.9292)">
                                                    <g id="mocl5xayll77ub74" opacity="1" style="mix-blend-mode:normal">
                                                        <g>
                                                            <g>
                                                                <path id="mocl5xayll77ub74_fill_path"
                                                                      d="M10.74342,13.8561l0.06492,-10.43171c0,-0.22195 -0.03246,-0.4439 -0.19475,-0.4439c-0.16229,0 -0.32458,0.31707 -0.51932,0.63415l-5.77743,9.1c-0.38949,0.60244 -0.81144,1.3 -2.23957,1.3c-2.01236,0 -2.07728,-1.55366 -2.07728,-2.34634v-11.50976h2.62905l-0.06491,10.20976c0,0.31707 -0.03246,0.63415 0.2272,0.63415c0.16229,0 0.25966,-0.22195 0.38949,-0.4439l5.6476,-9.03659c0.74652,-1.20488 1.39568,-1.52195 2.33694,-1.52195c2.10974,0 2.1422,1.77561 2.1422,2.47317v11.38293z"
                                                                      fill-rule="evenodd" fill="rgb(15, 98, 254)"
                                                                      fill-opacity="1"
                                                                      style="mix-blend-mode:normal"></path>
                                                            </g>
                                                        </g>
                                                    </g>
                                                </g>
                                            </g>
                                            <g id="mocl5xb0719b5jxd_translate">
                                                <g transform="matrix(1,0,0,1,113.8195,5.9609)">
                                                    <g id="mocl5xb0719b5jxd" opacity="1" style="mix-blend-mode:normal">
                                                        <g>
                                                            <g>
                                                                <path id="mocl5xb0719b5jxd_fill_path"
                                                                      d="M10.74343,12.33415c-0.48686,1.23659 -0.8439,1.64878 -2.01237,1.64878c-1.0711,0 -1.49305,-0.34878 -2.01237,-1.64878l-3.60277,-9.13171c-0.06491,-0.15854 -0.22719,-0.4439 -0.35702,-0.4439c-0.2272,0 -0.22721,0.34878 -0.22721,0.41219l0.06492,10.68536h-2.59661v-12.04878c0,-1.77561 1.85009,-1.80732 2.27203,-1.80732c1.03864,0 1.85007,0.22195 2.46676,1.77561l3.63524,9.13171c0.12983,0.28537 0.25966,0.50732 0.38949,0.50732c0.12983,0 0.25964,-0.22195 0.38947,-0.50732l3.63524,-9.13171c0.61669,-1.52195 1.42814,-1.77561 2.46678,-1.77561c1.2983,0 2.27202,0.53902 2.27202,1.80732v12.04878h-2.66152l0.06492,-10.68536c0,-0.38049 -0.16229,-0.41219 -0.22721,-0.41219c-0.12983,0 -0.29212,0.28537 -0.32457,0.4439z"
                                                                      fill-rule="evenodd" fill="rgb(15, 98, 254)"
                                                                      fill-opacity="1"
                                                                      style="mix-blend-mode:normal"></path>
                                                            </g>
                                                        </g>
                                                    </g>
                                                </g>
                                            </g>
                                            <g id="mocl5xb3l8qef9d1_translate">
                                                <g transform="matrix(1,0,0,1,131.8979,5.9292)">
                                                    <g id="mocl5xb3l8qef9d1" opacity="1" style="mix-blend-mode:normal">
                                                        <g>
                                                            <g>
                                                                <path id="mocl5xb3l8qef9d1_fill_path"
                                                                      d="M5.29057,1.55366c0.48686,-1.14146 1.03865,-1.55366 2.30449,-1.55366c1.20093,0 1.81761,0.38049 2.30447,1.55366l5.29057,12.30244h-2.79102l-1.42845,-3.4561h-6.75116l-1.42814,3.4561h-2.79134zM4.90107,8.56098h5.38827l-2.27202,-5.58049c-0.06491,-0.19024 -0.22752,-0.57073 -0.38981,-0.57073c-0.19474,0 -0.32458,0.38049 -0.38949,0.57073z"
                                                                      fill-rule="evenodd" fill="rgb(15, 98, 254)"
                                                                      fill-opacity="1"
                                                                      style="mix-blend-mode:normal"></path>
                                                            </g>
                                                        </g>
                                                    </g>
                                                </g>
                                            </g>
                                            <g id="mocl5xb5moop7rma_translate">
                                                <g transform="matrix(1,0,0,1,144.6863,6.0879)">
                                                    <g id="mocl5xb5moop7rma" opacity="1" style="mix-blend-mode:normal">
                                                        <g>
                                                            <g>
                                                                <path id="mocl5xb5moop7rma_fill_path"
                                                                      d="M5.4853,13.69756v-11.66829h-5.4853v-2.02927h13.59968v2.02927h-5.4853v11.66829z"
                                                                      fill-rule="evenodd" fill="rgb(15, 98, 254)"
                                                                      fill-opacity="1"
                                                                      style="mix-blend-mode:normal"></path>
                                                            </g>
                                                        </g>
                                                    </g>
                                                </g>
                                            </g>
                                        </g>
                                    </g>
                                </g>
                            </g>
                        </g>
                    </g>
                </g>
            </g>
        </g>
    </g>
    <animateTransform href="#mocl5x9loy94wmbr_translate" attributeName="transform" type="translate"
                      values="0 0;0 0;-48.3897 -0.0033;-48.3897 -0.0033;-0.3897 -0.0033" dur="6.0547s"
                      repeatCount="1" calcMode="spline" keyTimes="0;0.17;0.25;0.91;1"
                      keySplines="0.5 0 0.15 1;0.5 0 0.15 1;0.5 0.35 0.15 1;0.5 0 0.15 1" additive="sum"
                      fill="freeze"></animateTransform>
    <animateTransform href="#mocl5xac9vlq2aey_translate" attributeName="transform" type="translate"
                      values="0 0;0 0;25 0;25 0;0 0" dur="6.0547s" repeatCount="1" calcMode="spline"
                      keyTimes="0;0.17;0.25;0.91;1" keySplines="0.5 0 0.15 1;0.5 0 0.15 1;0.5 0.35 0.15 1;0.5 0 0.15 1"
                      additive="sum" fill="freeze"></animateTransform>
</svg>